<svg xmlns="http://www.w3.org/2000/svg" xmlns:xlink="http://www.w3.org/1999/xlink" style="margin:auto;background:#f1f2f3;display:block;z-index:1;position:relative" width="1873" height="961" preserveAspectRatio="xMidYMid" viewBox="0 0 1873 961">
<g transform="translate(936.5,480.5) scale(1,1) translate(-936.5,-480.5)"><path id="path0" d="M 204.83611018117196 76.51307232774819
c 0 34.43640874534313 -8.425929799392467 9.891308894938986 -18.31723869433145 9.891308894938986
S 168.20163279250906 110.94948107309132 168.20163279250906 76.51307232774819
s 8.425929799392467 -9.891308894938986 18.31723869433145 -9.891308894938986
S 204.83611018117196 42.07666358240506 204.83611018117196 76.51307232774819
z" fill="none" stroke="none"></path>
<circle cx="0" cy="0" r="4.85134726455135" fill="#5699d2" opacity="0.9">
  <animateMotion begin="-6.613959978622165s" dur="14.64s" repeatCount="indefinite">
    <mpath xlink:href="#path0"></mpath>
  </animateMotion>
</circle><path id="path1" d="M 656.6510120817752 339.5767467632527
c 0 20.625542505169356 -5.0466752938180335 5.924357953612475 -10.971033247430508 5.924357953612475
S 634.7089455869143 360.202289268422 634.7089455869143 339.5767467632527
s 5.0466752938180335 -5.924357953612475 10.971033247430508 -5.924357953612475
S 656.6510120817752 318.95120425808335 656.6510120817752 339.5767467632527
z" fill="none" stroke="none"></path>
<circle cx="0" cy="0" r="7.398995480357047" fill="#5699d2" opacity="0.9">
  <animateMotion begin="-9.008264385128358s" dur="14.64s" repeatCount="indefinite">
    <mpath xlink:href="#path1"></mpath>
  </animateMotion>
</circle><path id="path2" d="M 518.2144354171962 171.37591478927578
c 0 34.52915817062931 -8.44862380770717 9.91794968730842 -18.36657349501559 9.91794968730842
S 481.48128842716505 205.90507295990508 481.48128842716505 171.37591478927578
s 8.44862380770717 -9.91794968730842 18.36657349501559 -9.91794968730842
S 518.2144354171962 136.84675661864648 518.2144354171962 171.37591478927578
z" fill="none" stroke="none"></path>
<circle cx="0" cy="0" r="5.563880569519874" fill="#3323c5" opacity="0.9">
  <animateMotion begin="-13.389225047693984s" dur="14.64s" repeatCount="indefinite">
    <mpath xlink:href="#path2"></mpath>
  </animateMotion>
</circle><path id="path3" d="M 845.4277669084909 239.46599954804324
c 0 30.52212993930958 -7.468180729831067 8.766994769801688 -16.235175499632753 8.766994769801688
S 812.9574159092253 269.9881294873528 812.9574159092253 239.46599954804324
s 7.468180729831067 -8.766994769801688 16.235175499632753 -8.766994769801688
S 845.4277669084909 208.94386960873368 845.4277669084909 239.46599954804324
z" fill="none" stroke="none"></path>
<circle cx="0" cy="0" r="7.699162273838319" fill="#232fe4" opacity="0.9">
  <animateMotion begin="-2.986470035723901s" dur="14.64s" repeatCount="indefinite">
    <mpath xlink:href="#path3"></mpath>
  </animateMotion>
</circle><path id="path4" d="M 1044.6106316026342 934.8670148152808
c 0 20.018985553876362 -4.898262422756981 5.750134148453848 -10.64839657121083 5.750134148453848
S 1023.3138384602124 954.8860003691572 1023.3138384602124 934.8670148152808
s 4.898262422756981 -5.750134148453848 10.64839657121083 -5.750134148453848
S 1044.6106316026342 914.8480292614043 1044.6106316026342 934.8670148152808
z" fill="none" stroke="none"></path>
<circle cx="0" cy="0" r="5.386173788968914" fill="#232fe4" opacity="0.9">
  <animateMotion begin="-8.01881558011634s" dur="14.64s" repeatCount="indefinite">
    <mpath xlink:href="#path4"></mpath>
  </animateMotion>
</circle><path id="path5" d="M 1497.5657351889026 153.8925563536227
c 0 31.519323227798978 -7.712174832333792 9.053422629261409 -16.7655974615952 9.053422629261409
S 1464.0345402657122 185.41187958142166 1464.0345402657122 153.8925563536227
s 7.712174832333792 -9.053422629261409 16.7655974615952 -9.053422629261409
S 1497.5657351889026 122.37323312582372 1497.5657351889026 153.8925563536227
z" fill="none" stroke="none"></path>
<circle cx="0" cy="0" r="6.11925291445705" fill="#1d3f72" opacity="0.9">
  <animateMotion begin="-13.39055928308127s" dur="14.64s" repeatCount="indefinite">
    <mpath xlink:href="#path5"></mpath>
  </animateMotion>
</circle><path id="path6" d="M 697.3708881513475 499.30734073118975
c 0 30.069432208293957 -7.357414263731499 8.636964570467413 -15.994378834198912 8.636964570467413
S 665.3821304829497 529.3767729394837 665.3821304829497 499.30734073118975
s 7.357414263731499 -8.636964570467413 15.994378834198912 -8.636964570467413
S 697.3708881513475 469.2379085228958 697.3708881513475 499.30734073118975
z" fill="none" stroke="none"></path>
<circle cx="0" cy="0" r="5.862188805734747" fill="#232fe4" opacity="0.9">
  <animateMotion begin="-1.410524513164967s" dur="14.64s" repeatCount="indefinite">
    <mpath xlink:href="#path6"></mpath>
  </animateMotion>
</circle><path id="path7" d="M 796.6051654729229 704.355711393898
c 0 20.535506059093137 -5.024645099565341 5.89849642122888 -10.923141520794221 5.89849642122888
S 774.7588824313343 724.8912174529911 774.7588824313343 704.355711393898
s 5.024645099565341 -5.89849642122888 10.923141520794221 -5.89849642122888
S 796.6051654729229 683.8202053348049 796.6051654729229 704.355711393898
z" fill="none" stroke="none"></path>
<circle cx="0" cy="0" r="7.157270785595852" fill="#589adc" opacity="0.9">
  <animateMotion begin="-4.148250187167513s" dur="14.64s" repeatCount="indefinite">
    <mpath xlink:href="#path7"></mpath>
  </animateMotion>
</circle><path id="path8" d="M 928.4461046046922 781.3791456729558
c 0 29.244183255550258 -7.155491647634637 8.399924977658053 -15.55541662529269 8.399924977658053
S 897.3352713541069 810.6233289285061 897.3352713541069 781.3791456729558
s 7.155491647634637 -8.399924977658053 15.55541662529269 -8.399924977658053
S 928.4461046046922 752.1349624174055 928.4461046046922 781.3791456729558
z" fill="none" stroke="none"></path>
<circle cx="0" cy="0" r="6.614435113578188" fill="#2783c1" opacity="0.9">
  <animateMotion begin="-1.9903259794828312s" dur="14.64s" repeatCount="indefinite">
    <mpath xlink:href="#path8"></mpath>
  </animateMotion>
</circle><path id="path9" d="M 1142.2746312657246 340.0950292206095
c 0 19.271891528554413 -4.715462820816505 5.5355433113932895 -10.251006132209795 5.5355433113932895
S 1121.772619001305 359.3669207491639 1121.772619001305 340.0950292206095
s 4.715462820816505 -5.5355433113932895 10.251006132209795 -5.5355433113932895
S 1142.2746312657246 320.82313769205507 1142.2746312657246 340.0950292206095
z" fill="none" stroke="none"></path>
<circle cx="0" cy="0" r="5.985080424391162" fill="#3323c5" opacity="0.9">
  <animateMotion begin="-8.579961567398286s" dur="14.64s" repeatCount="indefinite">
    <mpath xlink:href="#path9"></mpath>
  </animateMotion>
</circle><path id="path10" d="M 1502.4549075811453 360.92652015623463
c 0 28.26880435973336 -6.916835109296459 8.119762954391497 -15.036598063687956 8.119762954391497
S 1472.3817114537694 389.19532451596797 1472.3817114537694 360.92652015623463
s 6.916835109296459 -8.119762954391497 15.036598063687956 -8.119762954391497
S 1502.4549075811453 332.6577157965013 1502.4549075811453 360.92652015623463
z" fill="none" stroke="none"></path>
<circle cx="0" cy="0" r="4.121190379806841" fill="#d8ebf9" opacity="0.9">
  <animateMotion begin="-7.16359287004252s" dur="14.64s" repeatCount="indefinite">
    <mpath xlink:href="#path10"></mpath>
  </animateMotion>
</circle><path id="path11" d="M 1604.637842067523 592.7974790263071
c 0 29.129830772508843 -7.127511784762802 8.367079051678072 -15.494590836440874 8.367079051678072
S 1573.6486603946412 621.9273097988159 1573.6486603946412 592.7974790263071
s 7.127511784762802 -8.367079051678072 15.494590836440874 -8.367079051678072
S 1604.637842067523 563.6676482537982 1604.637842067523 592.7974790263071
z" fill="none" stroke="none"></path>
<circle cx="0" cy="0" r="7.047464877592125" fill="#1d3f72" opacity="0.9">
  <animateMotion begin="-4.609773746008665s" dur="14.64s" repeatCount="indefinite">
    <mpath xlink:href="#path11"></mpath>
  </animateMotion>
</circle><path id="path12" d="M 677.779453694745 28.13843036983167
c 0 32.12694830961278 -7.860849054479721 9.2279532378675 -17.08880229234722 9.2279532378675
S 643.6018491100507 60.26537867944445 643.6018491100507 28.13843036983167
s 7.860849054479721 -9.2279532378675 17.08880229234722 -9.2279532378675
S 677.779453694745 -3.988517939781108 677.779453694745 28.13843036983167
z" fill="none" stroke="none"></path>
<circle cx="0" cy="0" r="5.770468228572699" fill="#2783c1" opacity="0.9">
  <animateMotion begin="-6.482409719304357s" dur="14.64s" repeatCount="indefinite">
    <mpath xlink:href="#path12"></mpath>
  </animateMotion>
</circle><path id="path13" d="M 83.11755154090955 316.1415274056294
c 0 34.19456845456076 -8.366756111222314 9.821844130565324 -18.18860024178764 9.821844130565324
S 46.740351057334266 350.33609586019014 46.740351057334266 316.1415274056294
s 8.366756111222314 -9.821844130565324 18.18860024178764 -9.821844130565324
S 83.11755154090955 281.94695895106867 83.11755154090955 316.1415274056294
z" fill="none" stroke="none"></path>
<circle cx="0" cy="0" r="7.660809888943567" fill="#1d3f72" opacity="0.9">
  <animateMotion begin="-6.749139209518647s" dur="14.64s" repeatCount="indefinite">
    <mpath xlink:href="#path13"></mpath>
  </animateMotion>
</circle><path id="path14" d="M 1551.0407518419886 695.678605359431
c 0 23.70934087145709 -5.801221702590564 6.810129824780229 -12.611351527370793 6.810129824780229
S 1525.818048787247 719.3879462308881 1525.818048787247 695.678605359431
s 5.801221702590564 -6.810129824780229 12.611351527370793 -6.810129824780229
S 1551.0407518419886 671.9692644879739 1551.0407518419886 695.678605359431
z" fill="none" stroke="none"></path>
<circle cx="0" cy="0" r="6.52207823192194" fill="#d8ebf9" opacity="0.9">
  <animateMotion begin="-6.7544289593821025s" dur="14.64s" repeatCount="indefinite">
    <mpath xlink:href="#path14"></mpath>
  </animateMotion>
</circle><path id="path15" d="M 248.86825367201922 670.9417812472993
c 0 23.73779792319029 -5.8081845982274105 6.8183036587887 -12.62648825701611 6.8183036587887
S 223.61527715798698 694.6795791704897 223.61527715798698 670.9417812472993
s 5.8081845982274105 -6.8183036587887 12.62648825701611 -6.8183036587887
S 248.86825367201922 647.203983324109 248.86825367201922 670.9417812472993
z" fill="none" stroke="none"></path>
<circle cx="0" cy="0" r="4.629243940479447" fill="#2543da" opacity="0.9">
  <animateMotion begin="-8.509595671972566s" dur="14.64s" repeatCount="indefinite">
    <mpath xlink:href="#path15"></mpath>
  </animateMotion>
</circle><path id="path16" d="M 1685.3508211410906 780.3393295287927
c 0 27.71137489925732 -6.78044279449913 7.959650237020719 -14.74009303151985 7.959650237020719
S 1655.870635078051 808.05070442805 1655.870635078051 780.3393295287927
s 6.78044279449913 -7.959650237020719 14.74009303151985 -7.959650237020719
S 1685.3508211410906 752.6279546295355 1685.3508211410906 780.3393295287927
z" fill="none" stroke="none"></path>
<circle cx="0" cy="0" r="6.650119884016499" fill="#2783c1" opacity="0.9">
  <animateMotion begin="-11.874486595328799s" dur="14.64s" repeatCount="indefinite">
    <mpath xlink:href="#path16"></mpath>
  </animateMotion>
</circle><path id="path17" d="M 1237.885590153543 495.5926666712857
c 0 27.757578915827903 -6.791748032596188 7.972921603482483 -14.764669636078672 7.972921603482483
S 1208.3562508813857 523.3502455871136 1208.3562508813857 495.5926666712857
s 6.791748032596188 -7.972921603482483 14.764669636078672 -7.972921603482483
S 1237.885590153543 467.83508775545783 1237.885590153543 495.5926666712857
z" fill="none" stroke="none"></path>
<circle cx="0" cy="0" r="4.89381494574623" fill="#d8ebf9" opacity="0.9">
  <animateMotion begin="-10.700250358445144s" dur="14.64s" repeatCount="indefinite">
    <mpath xlink:href="#path17"></mpath>
  </animateMotion>
</circle><path id="path18" d="M 286.0186035514612 89.04877474071931
c 0 34.379565469700225 -8.412021338330906 9.874981571084108 -18.287002909415012 9.874981571084108
S 249.44459773263114 123.42834021041953 249.44459773263114 89.04877474071931
s 8.412021338330906 -9.874981571084108 18.287002909415012 -9.874981571084108
S 286.0186035514612 54.669209271019085 286.0186035514612 89.04877474071931
z" fill="none" stroke="none"></path>
<circle cx="0" cy="0" r="5.524439483206276" fill="#1d3f72" opacity="0.9">
  <animateMotion begin="-3.4985756127916687s" dur="14.64s" repeatCount="indefinite">
    <mpath xlink:href="#path18"></mpath>
  </animateMotion>
</circle><path id="path19" d="M 793.3702975093386 472.53712233697365
c 0 29.174292411672422 -7.138390696473039 8.379849948033568 -15.518240644506607 8.379849948033568
S 762.3338162203254 501.71141474864606 762.3338162203254 472.53712233697365
s 7.138390696473039 -8.379849948033568 15.518240644506607 -8.379849948033568
S 793.3702975093386 443.36282992530124 793.3702975093386 472.53712233697365
z" fill="none" stroke="none"></path>
<circle cx="0" cy="0" r="7.008717116434153" fill="#1d3f72" opacity="0.9">
  <animateMotion begin="-5.21093571621829s" dur="14.64s" repeatCount="indefinite">
    <mpath xlink:href="#path19"></mpath>
  </animateMotion>
</circle><path id="path20" d="M 1129.073751495952 114.28043309127132
c 0 34.094146016100986 -8.34218466351407 9.792999387603475 -18.135184051117545 9.792999387603475
S 1092.803383393717 148.3745791073723 1092.803383393717 114.28043309127132
s 8.34218466351407 -9.792999387603475 18.135184051117545 -9.792999387603475
S 1129.073751495952 80.18628707517033 1129.073751495952 114.28043309127132
z" fill="none" stroke="none"></path>
<circle cx="0" cy="0" r="4.7003119982857795" fill="#2543da" opacity="0.9">
  <animateMotion begin="-1.7850562670913557s" dur="14.64s" repeatCount="indefinite">
    <mpath xlink:href="#path20"></mpath>
  </animateMotion>
</circle><path id="path21" d="M 1769.506943937334 924.4575189152486
c 0 34.33575476880575 -8.401301698750341 9.862397646359097 -18.263699345109437 9.862397646359097
S 1732.979545247115 958.7932736840543 1732.979545247115 924.4575189152486
s 8.401301698750341 -9.862397646359097 18.263699345109437 -9.862397646359097
S 1769.506943937334 890.1217641464428 1769.506943937334 924.4575189152486
z" fill="none" stroke="none"></path>
<circle cx="0" cy="0" r="5.211200391655061" fill="#2783c1" opacity="0.9">
  <animateMotion begin="-3.446110829215575s" dur="14.64s" repeatCount="indefinite">
    <mpath xlink:href="#path21"></mpath>
  </animateMotion>
</circle><path id="path22" d="M 502.1082639765835 517.634164859955
c 0 35.967832399905966 -8.800639842530183 10.33118590210065 -19.13182574463083 10.33118590210065
S 463.84461248732185 553.601997259861 463.84461248732185 517.634164859955
s 8.800639842530183 -10.33118590210065 19.13182574463083 -10.33118590210065
S 502.1082639765835 481.6663324600491 502.1082639765835 517.634164859955
z" fill="none" stroke="none"></path>
<circle cx="0" cy="0" r="6.577548938307623" fill="#d8ebf9" opacity="0.9">
  <animateMotion begin="-1.0585775678972151s" dur="14.64s" repeatCount="indefinite">
    <mpath xlink:href="#path22"></mpath>
  </animateMotion>
</circle><path id="path23" d="M 526.6447370858555 529.2034378928211
c 0 27.26749478633922 -6.671833830700021 7.832152757778287 -14.503986588478309 7.832152757778287
S 497.6367639088989 556.4709326791602 497.6367639088989 529.2034378928211
s 6.671833830700021 -7.832152757778287 14.503986588478309 -7.832152757778287
S 526.6447370858555 501.93594310648183 526.6447370858555 529.2034378928211
z" fill="none" stroke="none"></path>
<circle cx="0" cy="0" r="7.88943972463386" fill="#1d3f72" opacity="0.9">
  <animateMotion begin="-9.157657010608098s" dur="14.64s" repeatCount="indefinite">
    <mpath xlink:href="#path23"></mpath>
  </animateMotion>
</circle><path id="path24" d="M 1003.2102388482159 118.14052694940546
c 0 34.95371931856705 -8.552505790713214 10.039898102141601 -18.592403892854815 10.039898102141601
S 966.0254310625063 153.0942462679725 966.0254310625063 118.14052694940546
s 8.552505790713214 -10.039898102141601 18.592403892854815 -10.039898102141601
S 1003.2102388482159 83.1868076308384 1003.2102388482159 118.14052694940546
z" fill="none" stroke="none"></path>
<circle cx="0" cy="0" r="6.90118495278782" fill="#3323c5" opacity="0.9">
  <animateMotion begin="-9.220580741256661s" dur="14.64s" repeatCount="indefinite">
    <mpath xlink:href="#path24"></mpath>
  </animateMotion>
</circle><path id="path25" d="M 202.72564487856224 926.36407762451
c 0 35.64353085691299 -8.721289464989347 10.238035458900539 -18.959324923889888 10.238035458900539
S 164.80699503078247 962.007608481423 164.80699503078247 926.36407762451
s 8.721289464989347 -10.238035458900539 18.959324923889888 -10.238035458900539
S 202.72564487856224 890.7205467675969 202.72564487856224 926.36407762451
z" fill="none" stroke="none"></path>
<circle cx="0" cy="0" r="7.8698070554543955" fill="#2543da" opacity="0.9">
  <animateMotion begin="-4.593476145682531s" dur="14.64s" repeatCount="indefinite">
    <mpath xlink:href="#path25"></mpath>
  </animateMotion>
</circle><path id="path26" d="M 382.316102021763 610.8300172032435
c 0 36.6156333583998 -8.959144332374418 10.517256390178666 -19.476400722553084 10.517256390178666
S 343.36330057665685 647.4456505616433 343.36330057665685 610.8300172032435
s 8.959144332374418 -10.517256390178666 19.476400722553084 -10.517256390178666
S 382.316102021763 574.2143838448437 382.316102021763 610.8300172032435
z" fill="none" stroke="none"></path>
<circle cx="0" cy="0" r="7.977338715924675" fill="#2783c1" opacity="0.9">
  <animateMotion begin="-6.6654919647507835s" dur="14.64s" repeatCount="indefinite">
    <mpath xlink:href="#path26"></mpath>
  </animateMotion>
</circle><path id="path27" d="M 1014.4229116808615 685.0670371284942
c 0 27.71746160677635 -6.781932095275063 7.961398546627249 -14.743330641902313 7.961398546627249
S 984.9362503970569 712.7844987352706 984.9362503970569 685.0670371284942
s 6.781932095275063 -7.961398546627249 14.743330641902313 -7.961398546627249
S 1014.4229116808615 657.3495755217178 1014.4229116808615 685.0670371284942
z" fill="none" stroke="none"></path>
<circle cx="0" cy="0" r="4.506724960606446" fill="#232fe4" opacity="0.9">
  <animateMotion begin="-9.620698417256992s" dur="14.64s" repeatCount="indefinite">
    <mpath xlink:href="#path27"></mpath>
  </animateMotion>
</circle><path id="path28" d="M 1032.5765749352013 619.1599249760245
c 0 23.884875159791026 -5.844171581650995 6.860549248025082 -12.704720829676077 6.860549248025082
S 1007.1671332758491 643.0448001358155 1007.1671332758491 619.1599249760245
s 5.844171581650995 -6.860549248025082 12.704720829676077 -6.860549248025082
S 1032.5765749352013 595.2750498162335 1032.5765749352013 619.1599249760245
z" fill="none" stroke="none"></path>
<circle cx="0" cy="0" r="5.163210751987822" fill="#2543da" opacity="0.9">
  <animateMotion begin="-11.015054451622706s" dur="14.64s" repeatCount="indefinite">
    <mpath xlink:href="#path28"></mpath>
  </animateMotion>
</circle><path id="path29" d="M 106.77944476251004 287.4321482942678
c 0 21.068574018101927 -5.155076621450471 6.0516116860505536 -11.206688307501025 6.0516116860505536
S 84.36606814750799 308.5007223123697 84.36606814750799 287.4321482942678
s 5.155076621450471 -6.0516116860505536 11.206688307501025 -6.0516116860505536
S 106.77944476251004 266.3635742761659 106.77944476251004 287.4321482942678
z" fill="none" stroke="none"></path>
<circle cx="0" cy="0" r="6.917552108500397" fill="#2543da" opacity="0.9">
  <animateMotion begin="-4.282168953970181s" dur="14.64s" repeatCount="indefinite">
    <mpath xlink:href="#path29"></mpath>
  </animateMotion>
</circle></g>
</svg>