<svg xmlns="http://www.w3.org/2000/svg" xmlns:xlink="http://www.w3.org/1999/xlink" style="margin:auto;background:#f1f2f3;display:block;z-index:1;position:relative" width="2490" height="1180" preserveAspectRatio="xMidYMid" viewBox="0 0 2490 1180">
<g transform="translate(1245,590) scale(1,1) translate(-1245,-590)"><path d="M-100 698.36C-56.21 703.95 -54.86 712.99 -13.23 712.99S31.77 686.75 73.55 686.75S118.33 704.65 160.32 704.65S204.06 704.05 247.1 704.05S291.55 710.51 333.87 710.51S377.95 689.9 420.65 689.9S466.47 691.75 507.42 691.75S552.45 698.06 594.19 698.06S640.34 685.49 680.97 685.49S724.52 699.64 767.74 699.64S813.66 700.31 854.52 700.31S899.27 688.96 941.29 688.96S987.63 711.46 1028.06 711.46S1073.17 684.43 1114.84 684.43S1160.32 685.96 1201.61 685.96S1245.61 711.63 1288.39 711.63S1333.31 701.22 1375.16 701.22S1420.26 702.98 1461.94 702.98S1508.19 695.23 1548.71 695.23S1593.33 704.94 1635.48 704.94S1681.02 704.96 1722.26 704.96S1766.75 694.05 1809.03 694.05S1854.23 692.11 1895.81 692.11S1940.18 687.62 1982.58 687.62S2028.84 708.77 2069.35 708.77S2115.46 704.5 2156.13 704.5S2199.66 710.85 2242.9 710.85S2288.66 692.57 2329.68 692.57S2374.93 708.25 2416.45 708.25S2461.05 701.12 2503.23 701.12S2547.21 686.81 2590 686.81S2633.42 688.26 2676.77 688.26L2590 1180 L-100 1180 Z" fill="#8cd0e5" stroke-width="0">
  <animate attributeName="d" dur="12.658227848101266s" repeatCount="indefinite" values="M-100 698.36C-56.21 703.95 -54.86 712.99 -13.23 712.99S31.77 686.75 73.55 686.75S118.33 704.65 160.32 704.65S204.06 704.05 247.1 704.05S291.55 710.51 333.87 710.51S377.95 689.9 420.65 689.9S466.47 691.75 507.42 691.75S552.45 698.06 594.19 698.06S640.34 685.49 680.97 685.49S724.52 699.64 767.74 699.64S813.66 700.31 854.52 700.31S899.27 688.96 941.29 688.96S987.63 711.46 1028.06 711.46S1073.17 684.43 1114.84 684.43S1160.32 685.96 1201.61 685.96S1245.61 711.63 1288.39 711.63S1333.31 701.22 1375.16 701.22S1420.26 702.98 1461.94 702.98S1508.19 695.23 1548.71 695.23S1593.33 704.94 1635.48 704.94S1681.02 704.96 1722.26 704.96S1766.75 694.05 1809.03 694.05S1854.23 692.11 1895.81 692.11S1940.18 687.62 1982.58 687.62S2028.84 708.77 2069.35 708.77S2115.46 704.5 2156.13 704.5S2199.66 710.85 2242.9 710.85S2288.66 692.57 2329.68 692.57S2374.93 708.25 2416.45 708.25S2461.05 701.12 2503.23 701.12S2547.21 686.81 2590 686.81S2633.42 688.26 2676.77 688.26L2590 1180 L-100 1180 Z;M-100 700.52C-55.35 709.13 -54.7 701.57 -13.23 701.57S31.59 696.68 73.55 696.68S119.7 708.36 160.32 708.36S205.71 702.66 247.1 702.66S291.51 693.49 333.87 693.49S378.64 704.86 420.65 704.86S465.11 694.33 507.42 694.33S552.83 698.31 594.19 698.31S639.63 711.81 680.97 711.81S725.74 701.47 767.74 701.47S812.14 695.21 854.52 695.21S900.82 691.43 941.29 691.43S985.33 694.89 1028.06 694.89S1073.94 708.1 1114.84 708.1S1159.8 689.94 1201.61 689.94S1247.85 705.62 1288.39 705.62S1333.97 689.59 1375.16 689.59S1418.56 699.81 1461.94 699.81S1507.16 698.43 1548.71 698.43S1593.9 685.76 1635.48 685.76S1679.19 713.15 1722.26 713.15S1767.01 709.11 1809.03 709.11S1853.28 710.74 1895.81 710.74S1939.44 712.63 1982.58 712.63S2028.36 699.67 2069.35 699.67S2113.52 689.11 2156.13 689.11S2199.97 689.59 2242.9 689.59S2287.42 700.97 2329.68 700.97S2375.74 690.76 2416.45 690.76S2460.29 709.54 2503.23 709.54S2547.23 699.29 2590 699.29S2634.59 691.25 2676.77 691.25L2590 1180 L-100 1180 Z;M-100 698.36C-56.21 703.95 -54.86 712.99 -13.23 712.99S31.77 686.75 73.55 686.75S118.33 704.65 160.32 704.65S204.06 704.05 247.1 704.05S291.55 710.51 333.87 710.51S377.95 689.9 420.65 689.9S466.47 691.75 507.42 691.75S552.45 698.06 594.19 698.06S640.34 685.49 680.97 685.49S724.52 699.64 767.74 699.64S813.66 700.31 854.52 700.31S899.27 688.96 941.29 688.96S987.63 711.46 1028.06 711.46S1073.17 684.43 1114.84 684.43S1160.32 685.96 1201.61 685.96S1245.61 711.63 1288.39 711.63S1333.31 701.22 1375.16 701.22S1420.26 702.98 1461.94 702.98S1508.19 695.23 1548.71 695.23S1593.33 704.94 1635.48 704.94S1681.02 704.96 1722.26 704.96S1766.75 694.05 1809.03 694.05S1854.23 692.11 1895.81 692.11S1940.18 687.62 1982.58 687.62S2028.84 708.77 2069.35 708.77S2115.46 704.5 2156.13 704.5S2199.66 710.85 2242.9 710.85S2288.66 692.57 2329.68 692.57S2374.93 708.25 2416.45 708.25S2461.05 701.12 2503.23 701.12S2547.21 686.81 2590 686.81S2633.42 688.26 2676.77 688.26L2590 1180 L-100 1180 Z"></animate>
  <animateTransform attributeName="transform" type="translate" dur="12.658227848101266s" begin="0s" repeatCount="indefinite" values="0;10;0" calcMode="spline" keySplines="0.3 0 0.7 1;0.3 0 0.7 1"></animateTransform>
</path><path d="M-100 747.99C-54.63 729.73 -53.35 726.71 -10.93 726.71S35.16 719.7 78.15 719.7S123.27 723.07 167.22 723.07S213.42 714.73 256.29 714.73S302.45 739.76 345.36 739.76S391.07 747.69 434.44 747.69S480.19 740.14 523.51 740.14S569.45 725.92 612.58 725.92S657.35 723.61 701.66 723.61S746.82 724.33 790.73 724.33S835.44 722.98 879.8 722.98S925.63 732.52 968.87 732.52S1016.35 744.07 1057.95 744.07S1103.69 733.26 1147.02 733.26S1192.61 740.29 1236.09 740.29S1282 714.92 1325.17 714.92S1369.93 727.22 1414.24 727.22S1460.62 726.03 1503.31 726.03S1548.77 720.87 1592.38 720.87S1638.03 718.72 1681.46 718.72S1728.24 738.64 1770.53 738.64S1815.98 736.75 1859.6 736.75S1904.68 726.09 1948.68 726.09S1995.38 742.18 2037.75 742.18S2085.04 735.47 2126.82 735.47S2172.25 717.17 2215.89 717.17S2262.61 730.23 2304.97 730.23S2351.13 735.7 2394.04 735.7S2438.81 746.52 2483.11 746.52S2528.95 729.3 2572.19 729.3S2616.93 743.09 2661.26 743.09L2590 1180 L-100 1180 Z" fill="#83c5dc" stroke-width="0">
  <animate attributeName="d" dur="11.39240506329114s" repeatCount="indefinite" values="M-100 747.99C-54.63 729.73 -53.35 726.71 -10.93 726.71S35.16 719.7 78.15 719.7S123.27 723.07 167.22 723.07S213.42 714.73 256.29 714.73S302.45 739.76 345.36 739.76S391.07 747.69 434.44 747.69S480.19 740.14 523.51 740.14S569.45 725.92 612.58 725.92S657.35 723.61 701.66 723.61S746.82 724.33 790.73 724.33S835.44 722.98 879.8 722.98S925.63 732.52 968.87 732.52S1016.35 744.07 1057.95 744.07S1103.69 733.26 1147.02 733.26S1192.61 740.29 1236.09 740.29S1282 714.92 1325.17 714.92S1369.93 727.22 1414.24 727.22S1460.62 726.03 1503.31 726.03S1548.77 720.87 1592.38 720.87S1638.03 718.72 1681.46 718.72S1728.24 738.64 1770.53 738.64S1815.98 736.75 1859.6 736.75S1904.68 726.09 1948.68 726.09S1995.38 742.18 2037.75 742.18S2085.04 735.47 2126.82 735.47S2172.25 717.17 2215.89 717.17S2262.61 730.23 2304.97 730.23S2351.13 735.7 2394.04 735.7S2438.81 746.52 2483.11 746.52S2528.95 729.3 2572.19 729.3S2616.93 743.09 2661.26 743.09L2590 1180 L-100 1180 Z;M-100 720.4C-55.35 735.63 -52.68 746.66 -10.93 746.66S33.83 739.33 78.15 739.33S124.51 732.59 167.22 732.59S213.87 742.65 256.29 742.65S303.14 736.33 345.36 736.33S392.35 726.89 434.44 726.89S480.48 738.33 523.51 738.33S569.82 735.12 612.58 735.12S657.67 741.93 701.66 741.93S746.57 731.59 790.73 731.59S835.84 724.18 879.8 724.18S925.02 721.67 968.87 721.67S1014.61 721.23 1057.95 721.23S1105.27 721.04 1147.02 721.04S1192.78 734.86 1236.09 734.86S1283.09 715.58 1325.17 715.58S1370.7 740.27 1414.24 740.27S1459.55 725.36 1503.31 725.36S1549.9 738.26 1592.38 738.26S1637.9 720.18 1681.46 720.18S1727.16 738.26 1770.53 738.26S1816.53 719.77 1859.6 719.77S1904.2 721 1948.68 721S1995.15 733.31 2037.75 733.31S2084.33 731.15 2126.82 731.15S2174.13 733.01 2215.89 733.01S2262.6 723.68 2304.97 723.68S2350.11 737.22 2394.04 737.22S2441.22 744.26 2483.11 744.26S2530.52 731.16 2572.19 731.16S2617.01 726.34 2661.26 726.34L2590 1180 L-100 1180 Z;M-100 747.99C-54.63 729.73 -53.35 726.71 -10.93 726.71S35.16 719.7 78.15 719.7S123.27 723.07 167.22 723.07S213.42 714.73 256.29 714.73S302.45 739.76 345.36 739.76S391.07 747.69 434.44 747.69S480.19 740.14 523.51 740.14S569.45 725.92 612.58 725.92S657.35 723.61 701.66 723.61S746.82 724.33 790.73 724.33S835.44 722.98 879.8 722.98S925.63 732.52 968.87 732.52S1016.35 744.07 1057.95 744.07S1103.69 733.26 1147.02 733.26S1192.61 740.29 1236.09 740.29S1282 714.92 1325.17 714.92S1369.93 727.22 1414.24 727.22S1460.62 726.03 1503.31 726.03S1548.77 720.87 1592.38 720.87S1638.03 718.72 1681.46 718.72S1728.24 738.64 1770.53 738.64S1815.98 736.75 1859.6 736.75S1904.68 726.09 1948.68 726.09S1995.38 742.18 2037.75 742.18S2085.04 735.47 2126.82 735.47S2172.25 717.17 2215.89 717.17S2262.61 730.23 2304.97 730.23S2351.13 735.7 2394.04 735.7S2438.81 746.52 2483.11 746.52S2528.95 729.3 2572.19 729.3S2616.93 743.09 2661.26 743.09L2590 1180 L-100 1180 Z"></animate>
  <animateTransform attributeName="transform" type="translate" dur="11.39240506329114s" begin="-1.139240506329114s" repeatCount="indefinite" values="0;10;0" calcMode="spline" keySplines="0.3 0 0.7 1;0.3 0 0.7 1"></animateTransform>
</path><path d="M-100 759.41C-53.91 759.92 -51.55 775.54 -8.5 775.54S39.89 747.05 82.99 747.05S130.86 782.56 174.49 782.56S222.41 749.58 265.99 749.58S313.72 764.16 357.48 764.16S405.51 746.69 448.98 746.69S497.59 758.56 540.48 758.56S588.06 748.83 631.97 748.83S679.84 775.29 723.47 775.29S772.06 765.85 814.97 765.85S862.44 765.89 906.46 765.89S952.56 776.84 997.96 776.84S1044.23 778.12 1089.46 778.12S1137.53 753.19 1180.95 753.19S1226.73 771.48 1272.45 771.48S1320.88 768.52 1363.95 768.52S1411.13 767.97 1455.44 767.97S1503.41 758.7 1546.94 758.7S1593.29 780.73 1638.44 780.73S1684.97 744.15 1729.93 744.15S1776.23 771.08 1821.43 771.08S1869.54 748.46 1912.93 748.46S1960.74 748.25 2004.42 748.25S2052.61 761.11 2095.92 761.11S2144.35 773.31 2187.41 773.31S2234.68 769.75 2278.91 769.75S2327.26 763.91 2370.41 763.91S2418.75 758.35 2461.9 758.35S2510.09 761.17 2553.4 761.17S2599.36 772.66 2644.9 772.66L2590 1180 L-100 1180 Z" fill="#7abad2" stroke-width="0">
  <animate attributeName="d" dur="10.126582278481012s" repeatCount="indefinite" values="M-100 759.41C-53.91 759.92 -51.55 775.54 -8.5 775.54S39.89 747.05 82.99 747.05S130.86 782.56 174.49 782.56S222.41 749.58 265.99 749.58S313.72 764.16 357.48 764.16S405.51 746.69 448.98 746.69S497.59 758.56 540.48 758.56S588.06 748.83 631.97 748.83S679.84 775.29 723.47 775.29S772.06 765.85 814.97 765.85S862.44 765.89 906.46 765.89S952.56 776.84 997.96 776.84S1044.23 778.12 1089.46 778.12S1137.53 753.19 1180.95 753.19S1226.73 771.48 1272.45 771.48S1320.88 768.52 1363.95 768.52S1411.13 767.97 1455.44 767.97S1503.41 758.7 1546.94 758.7S1593.29 780.73 1638.44 780.73S1684.97 744.15 1729.93 744.15S1776.23 771.08 1821.43 771.08S1869.54 748.46 1912.93 748.46S1960.74 748.25 2004.42 748.25S2052.61 761.11 2095.92 761.11S2144.35 773.31 2187.41 773.31S2234.68 769.75 2278.91 769.75S2327.26 763.91 2370.41 763.91S2418.75 758.35 2461.9 758.35S2510.09 761.17 2553.4 761.17S2599.36 772.66 2644.9 772.66L2590 1180 L-100 1180 Z;M-100 759.42C-52.99 765.78 -51.51 771.25 -8.5 771.25S40.1 756.7 82.99 756.7S130.93 759.38 174.49 759.38S220.76 760.14 265.99 760.14S312.9 778.82 357.48 778.82S406.04 769.07 448.98 769.07S494.91 769.01 540.48 769.01S587.55 781.36 631.97 781.36S678.78 778.79 723.47 778.79S771.42 768.73 814.97 768.73S862.92 755.92 906.46 755.92S954.63 746.01 997.96 746.01S1045.46 769.33 1089.46 769.33S1138.07 757.07 1180.95 757.07S1229.21 776.97 1272.45 776.97S1318.89 770.11 1363.95 770.11S1411.4 780.67 1455.44 780.67S1503.36 769.99 1546.94 769.99S1593.76 778.26 1638.44 778.26S1687.03 743.47 1729.93 743.47S1778.55 767.42 1821.43 767.42S1869.21 769.41 1912.93 769.41S1959.3 781.77 2004.42 781.77S2052.91 758.02 2095.92 758.02S2142.12 764.7 2187.41 764.7S2234.21 763.06 2278.91 763.06S2326.95 774.91 2370.41 774.91S2418.99 766.58 2461.9 766.58S2508.73 777.21 2553.4 777.21S2600.01 767.41 2644.9 767.41L2590 1180 L-100 1180 Z;M-100 759.41C-53.91 759.92 -51.55 775.54 -8.5 775.54S39.89 747.05 82.99 747.05S130.86 782.56 174.49 782.56S222.41 749.58 265.99 749.58S313.72 764.16 357.48 764.16S405.51 746.69 448.98 746.69S497.59 758.56 540.48 758.56S588.06 748.83 631.97 748.83S679.84 775.29 723.47 775.29S772.06 765.85 814.97 765.85S862.44 765.89 906.46 765.89S952.56 776.84 997.96 776.84S1044.23 778.12 1089.46 778.12S1137.53 753.19 1180.95 753.19S1226.73 771.48 1272.45 771.48S1320.88 768.52 1363.95 768.52S1411.13 767.97 1455.44 767.97S1503.41 758.7 1546.94 758.7S1593.29 780.73 1638.44 780.73S1684.97 744.15 1729.93 744.15S1776.23 771.08 1821.43 771.08S1869.54 748.46 1912.93 748.46S1960.74 748.25 2004.42 748.25S2052.61 761.11 2095.92 761.11S2144.35 773.31 2187.41 773.31S2234.68 769.75 2278.91 769.75S2327.26 763.91 2370.41 763.91S2418.75 758.35 2461.9 758.35S2510.09 761.17 2553.4 761.17S2599.36 772.66 2644.9 772.66L2590 1180 L-100 1180 Z"></animate>
  <animateTransform attributeName="transform" type="translate" dur="10.126582278481012s" begin="-2.0253164556962022s" repeatCount="indefinite" values="0;10;0" calcMode="spline" keySplines="0.3 0 0.7 1;0.3 0 0.7 1"></animateTransform>
</path><path d="M-100 795.53C-51.79 778.3 -51.63 791.38 -5.94 791.38S42.87 779.22 88.11 779.22S135.37 807.28 182.17 807.28S229.27 773.43 276.22 773.43S324.25 795.87 370.28 795.87S419.46 788.31 464.34 788.31S513.18 812.39 558.39 812.39S607.71 793.43 652.45 793.43S701.51 799.28 746.5 799.28S794.24 777.99 840.56 777.99S890.27 798.87 934.62 798.87S983.34 808.8 1028.67 808.8S1078.58 782.71 1122.73 782.71S1169.78 798.54 1216.78 798.54S1263.99 813.28 1310.84 813.28S1358.01 777.19 1404.9 777.19S1454.45 799.17 1498.95 799.17S1548.36 779.26 1593.01 779.26S1641.97 794.75 1687.06 794.75S1736.28 789.55 1781.12 789.55S1829.54 778.91 1875.17 778.91S1922.56 789.2 1969.23 789.2S2017.52 795.78 2063.29 795.78S2110.37 777.19 2157.34 777.19S2207.3 812.21 2251.4 812.21S2301.1 776.39 2345.45 776.39S2393.69 796.25 2439.51 796.25S2487.42 778.29 2533.57 778.29S2581.79 813.04 2627.62 813.04L2590 1180 L-100 1180 Z" fill="#71b0c9" stroke-width="0">
  <animate attributeName="d" dur="8.860759493670885s" repeatCount="indefinite" values="M-100 795.53C-51.79 778.3 -51.63 791.38 -5.94 791.38S42.87 779.22 88.11 779.22S135.37 807.28 182.17 807.28S229.27 773.43 276.22 773.43S324.25 795.87 370.28 795.87S419.46 788.31 464.34 788.31S513.18 812.39 558.39 812.39S607.71 793.43 652.45 793.43S701.51 799.28 746.5 799.28S794.24 777.99 840.56 777.99S890.27 798.87 934.62 798.87S983.34 808.8 1028.67 808.8S1078.58 782.71 1122.73 782.71S1169.78 798.54 1216.78 798.54S1263.99 813.28 1310.84 813.28S1358.01 777.19 1404.9 777.19S1454.45 799.17 1498.95 799.17S1548.36 779.26 1593.01 779.26S1641.97 794.75 1687.06 794.75S1736.28 789.55 1781.12 789.55S1829.54 778.91 1875.17 778.91S1922.56 789.2 1969.23 789.2S2017.52 795.78 2063.29 795.78S2110.37 777.19 2157.34 777.19S2207.3 812.21 2251.4 812.21S2301.1 776.39 2345.45 776.39S2393.69 796.25 2439.51 796.25S2487.42 778.29 2533.57 778.29S2581.79 813.04 2627.62 813.04L2590 1180 L-100 1180 Z;M-100 775.27C-52.76 792.76 -51.31 804.29 -5.94 804.29S41.91 795.79 88.11 795.79S136.45 810.66 182.17 810.66S230.58 786.67 276.22 786.67S324.99 790.76 370.28 790.76S417.58 778.34 464.34 778.34S511.46 813.51 558.39 813.51S607.98 814.14 652.45 814.14S701.55 794.67 746.5 794.67S794.67 778.09 840.56 778.09S890.51 810.7 934.62 810.7S984.21 792.75 1028.67 792.75S1077.87 793.26 1122.73 793.26S1172.33 779.09 1216.78 779.09S1265.01 795.1 1310.84 795.1S1358.77 777.39 1404.9 777.39S1452.52 813.46 1498.95 813.46S1546.92 786.97 1593.01 786.97S1641.43 794.07 1687.06 794.07S1735.32 801.39 1781.12 801.39S1829.59 801.59 1875.17 801.59S1924.99 779.53 1969.23 779.53S2017.6 819.26 2063.29 819.26S2112.58 773.78 2157.34 773.78S2204.4 807.08 2251.4 807.08S2301.27 787.86 2345.45 787.86S2393.46 809.7 2439.51 809.7S2487.44 799.82 2533.57 799.82S2580.72 797.31 2627.62 797.31L2590 1180 L-100 1180 Z;M-100 795.53C-51.79 778.3 -51.63 791.38 -5.94 791.38S42.87 779.22 88.11 779.22S135.37 807.28 182.17 807.28S229.27 773.43 276.22 773.43S324.25 795.87 370.28 795.87S419.46 788.31 464.34 788.31S513.18 812.39 558.39 812.39S607.71 793.43 652.45 793.43S701.51 799.28 746.5 799.28S794.24 777.99 840.56 777.99S890.27 798.87 934.62 798.87S983.34 808.8 1028.67 808.8S1078.58 782.71 1122.73 782.71S1169.78 798.54 1216.78 798.54S1263.99 813.28 1310.84 813.28S1358.01 777.19 1404.9 777.19S1454.45 799.17 1498.95 799.17S1548.36 779.26 1593.01 779.26S1641.97 794.75 1687.06 794.75S1736.28 789.55 1781.12 789.55S1829.54 778.91 1875.17 778.91S1922.56 789.2 1969.23 789.2S2017.52 795.78 2063.29 795.78S2110.37 777.19 2157.34 777.19S2207.3 812.21 2251.4 812.21S2301.1 776.39 2345.45 776.39S2393.69 796.25 2439.51 796.25S2487.42 778.29 2533.57 778.29S2581.79 813.04 2627.62 813.04L2590 1180 L-100 1180 Z"></animate>
  <animateTransform attributeName="transform" type="translate" dur="8.860759493670885s" begin="-2.6582278481012658s" repeatCount="indefinite" values="0;10;0" calcMode="spline" keySplines="0.3 0 0.7 1;0.3 0 0.7 1"></animateTransform>
</path><path d="M-100 827.3C-49.24 822.61 -51.43 853.02 -3.24 853.02S47.29 819.18 93.53 819.18S142.74 834.3 190.29 834.3S240.45 804.5 287.05 804.5S337.1 843.73 383.81 843.73S435.02 818.67 480.58 818.67S531.16 828.29 577.34 828.29S627.31 830.75 674.1 830.75S724.34 849.81 770.86 849.81S819.52 819.87 867.63 819.87S917.21 829.88 964.39 829.88S1014.7 804.79 1061.15 804.79S1112.01 840.22 1157.91 840.22S1206.97 829.33 1254.68 829.33S1305.63 827.2 1351.44 827.2S1401.12 814.06 1448.2 814.06S1498.31 843.5 1544.96 843.5S1594.26 827.88 1641.73 827.88S1690.88 829.72 1738.49 829.72S1788.93 808 1835.25 808S1884.13 837.39 1932.01 837.39S1982.96 827.71 2028.78 827.71S2079.25 827.14 2125.54 827.14S2175.18 812.78 2222.3 812.78S2272.16 844.04 2319.06 844.04S2370.09 831.05 2415.83 831.05S2465.47 852.69 2512.59 852.69S2563.13 815.2 2609.35 815.2L2590 1180 L-100 1180 Z" fill="#68a5c0" stroke-width="0">
  <animate attributeName="d" dur="7.594936708860759s" repeatCount="indefinite" values="M-100 827.3C-49.24 822.61 -51.43 853.02 -3.24 853.02S47.29 819.18 93.53 819.18S142.74 834.3 190.29 834.3S240.45 804.5 287.05 804.5S337.1 843.73 383.81 843.73S435.02 818.67 480.58 818.67S531.16 828.29 577.34 828.29S627.31 830.75 674.1 830.75S724.34 849.81 770.86 849.81S819.52 819.87 867.63 819.87S917.21 829.88 964.39 829.88S1014.7 804.79 1061.15 804.79S1112.01 840.22 1157.91 840.22S1206.97 829.33 1254.68 829.33S1305.63 827.2 1351.44 827.2S1401.12 814.06 1448.2 814.06S1498.31 843.5 1544.96 843.5S1594.26 827.88 1641.73 827.88S1690.88 829.72 1738.49 829.72S1788.93 808 1835.25 808S1884.13 837.39 1932.01 837.39S1982.96 827.71 2028.78 827.71S2079.25 827.14 2125.54 827.14S2175.18 812.78 2222.3 812.78S2272.16 844.04 2319.06 844.04S2370.09 831.05 2415.83 831.05S2465.47 852.69 2512.59 852.69S2563.13 815.2 2609.35 815.2L2590 1180 L-100 1180 Z;M-100 803.58C-50.84 827.6 -49.89 827.43 -3.24 827.43S46.88 818.25 93.53 818.25S142.38 837.31 190.29 837.31S240.44 817.38 287.05 817.38S336.86 817.77 383.81 817.77S433.13 804.01 480.58 804.01S530.66 845 577.34 845S626.29 817.37 674.1 817.37S724.95 842.35 770.86 842.35S819.39 834.13 867.63 834.13S918.32 816.27 964.39 816.27S1015.39 817.93 1061.15 817.93S1111.36 828.24 1157.91 828.24S1207.16 818.53 1254.68 818.53S1304.15 855.17 1351.44 855.17S1401.44 851.33 1448.2 851.33S1498.33 852.35 1544.96 852.35S1595.51 830.57 1641.73 830.57S1692.65 835.81 1738.49 835.81S1788.75 826.83 1835.25 826.83S1886.26 829.15 1932.01 829.15S1983.01 847.79 2028.78 847.79S2077.67 841.49 2125.54 841.49S2175.55 825.91 2222.3 825.91S2271.44 843.93 2319.06 843.93S2369.64 811.53 2415.83 811.53S2466.71 845.9 2512.59 845.9S2561.34 827.35 2609.35 827.35L2590 1180 L-100 1180 Z;M-100 827.3C-49.24 822.61 -51.43 853.02 -3.24 853.02S47.29 819.18 93.53 819.18S142.74 834.3 190.29 834.3S240.45 804.5 287.05 804.5S337.1 843.73 383.81 843.73S435.02 818.67 480.58 818.67S531.16 828.29 577.34 828.29S627.31 830.75 674.1 830.75S724.34 849.81 770.86 849.81S819.52 819.87 867.63 819.87S917.21 829.88 964.39 829.88S1014.7 804.79 1061.15 804.79S1112.01 840.22 1157.91 840.22S1206.97 829.33 1254.68 829.33S1305.63 827.2 1351.44 827.2S1401.12 814.06 1448.2 814.06S1498.31 843.5 1544.96 843.5S1594.26 827.88 1641.73 827.88S1690.88 829.72 1738.49 829.72S1788.93 808 1835.25 808S1884.13 837.39 1932.01 837.39S1982.96 827.71 2028.78 827.71S2079.25 827.14 2125.54 827.14S2175.18 812.78 2222.3 812.78S2272.16 844.04 2319.06 844.04S2370.09 831.05 2415.83 831.05S2465.47 852.69 2512.59 852.69S2563.13 815.2 2609.35 815.2L2590 1180 L-100 1180 Z"></animate>
  <animateTransform attributeName="transform" type="translate" dur="7.594936708860759s" begin="-3.0379746835443036s" repeatCount="indefinite" values="0;10;0" calcMode="spline" keySplines="0.3 0 0.7 1;0.3 0 0.7 1"></animateTransform>
</path><path d="M-100 838.96C-47.92 832.11 -48.02 874.54 -0.37 874.54S51.76 836.45 99.26 836.45S150.77 886.53 198.89 886.53S249.01 859.58 298.52 859.58S348.44 890.58 398.15 890.58S450.36 852.7 497.78 852.7S549.62 868.93 597.41 868.93S649.34 860.89 697.04 860.89S747.26 874.33 796.67 874.33S849.35 852.11 896.3 852.11S948.76 878.44 995.93 878.44S1048.61 848.79 1095.56 848.79S1148.07 879.88 1195.19 879.88S1246.71 839.64 1294.81 839.64S1346.8 884.1 1394.44 884.1S1444.86 861.3 1494.07 861.3S1546.58 870.13 1593.7 870.13S1643.63 872 1693.33 872S1743.66 884.3 1792.96 884.3S1843.94 858.26 1892.59 858.26S1942.44 878.21 1992.22 878.21S2042.17 841.17 2091.85 841.17S2143.48 873.73 2191.48 873.73S2241.31 855.49 2291.11 855.49S2341.62 875.29 2390.74 875.29S2441.52 842.01 2490.37 842.01S2542.59 874.84 2590 874.84S2641.32 850.94 2689.63 850.94L2590 1180 L-100 1180 Z" fill="#609bb6" stroke-width="0">
  <animate attributeName="d" dur="6.329113924050633s" repeatCount="indefinite" values="M-100 838.96C-47.92 832.11 -48.02 874.54 -0.37 874.54S51.76 836.45 99.26 836.45S150.77 886.53 198.89 886.53S249.01 859.58 298.52 859.58S348.44 890.58 398.15 890.58S450.36 852.7 497.78 852.7S549.62 868.93 597.41 868.93S649.34 860.89 697.04 860.89S747.26 874.33 796.67 874.33S849.35 852.11 896.3 852.11S948.76 878.44 995.93 878.44S1048.61 848.79 1095.56 848.79S1148.07 879.88 1195.19 879.88S1246.71 839.64 1294.81 839.64S1346.8 884.1 1394.44 884.1S1444.86 861.3 1494.07 861.3S1546.58 870.13 1593.7 870.13S1643.63 872 1693.33 872S1743.66 884.3 1792.96 884.3S1843.94 858.26 1892.59 858.26S1942.44 878.21 1992.22 878.21S2042.17 841.17 2091.85 841.17S2143.48 873.73 2191.48 873.73S2241.31 855.49 2291.11 855.49S2341.62 875.29 2390.74 875.29S2441.52 842.01 2490.37 842.01S2542.59 874.84 2590 874.84S2641.32 850.94 2689.63 850.94L2590 1180 L-100 1180 Z;M-100 853.84C-49.16 844.1 -49.55 886.58 -0.37 886.58S50.52 841.32 99.26 841.32S150.84 873.82 198.89 873.82S249.78 833.59 298.52 833.59S349.83 876.9 398.15 876.9S448.79 885.19 497.78 885.19S547.82 876.87 597.41 876.87S649.96 876.12 697.04 876.12S748.13 890.51 796.67 890.51S847.27 839.62 896.3 839.62S947.46 835.35 995.93 835.35S1048.08 847.54 1095.56 847.54S1145.84 886.97 1195.19 886.97S1245.83 841.87 1294.81 841.87S1346.92 886.46 1394.44 886.46S1445.92 863.27 1494.07 863.27S1544.81 874.48 1593.7 874.48S1645.2 856.73 1693.33 856.73S1744 885.45 1792.96 885.45S1845.66 842.69 1892.59 842.69S1945.29 863.17 1992.22 863.17S2043.85 850.89 2091.85 850.89S2144.21 870.9 2191.48 870.9S2243.32 833.12 2291.11 833.12S2343.35 889.67 2390.74 889.67S2441.56 878.47 2490.37 878.47S2542.8 842.66 2590 842.66S2641.44 858.41 2689.63 858.41L2590 1180 L-100 1180 Z;M-100 838.96C-47.92 832.11 -48.02 874.54 -0.37 874.54S51.76 836.45 99.26 836.45S150.77 886.53 198.89 886.53S249.01 859.58 298.52 859.58S348.44 890.58 398.15 890.58S450.36 852.7 497.78 852.7S549.62 868.93 597.41 868.93S649.34 860.89 697.04 860.89S747.26 874.33 796.67 874.33S849.35 852.11 896.3 852.11S948.76 878.44 995.93 878.44S1048.61 848.79 1095.56 848.79S1148.07 879.88 1195.19 879.88S1246.71 839.64 1294.81 839.64S1346.8 884.1 1394.44 884.1S1444.86 861.3 1494.07 861.3S1546.58 870.13 1593.7 870.13S1643.63 872 1693.33 872S1743.66 884.3 1792.96 884.3S1843.94 858.26 1892.59 858.26S1942.44 878.21 1992.22 878.21S2042.17 841.17 2091.85 841.17S2143.48 873.73 2191.48 873.73S2241.31 855.49 2291.11 855.49S2341.62 875.29 2390.74 875.29S2441.52 842.01 2490.37 842.01S2542.59 874.84 2590 874.84S2641.32 850.94 2689.63 850.94L2590 1180 L-100 1180 Z"></animate>
  <animateTransform attributeName="transform" type="translate" dur="6.329113924050633s" begin="-3.1645569620253164s" repeatCount="indefinite" values="0;10;0" calcMode="spline" keySplines="0.3 0 0.7 1;0.3 0 0.7 1"></animateTransform>
</path><path d="M-100 890.8C-47.97 887.44 -45.76 910.27 2.67 910.27S56.34 861.44 105.34 861.44S159.26 915.54 208.02 915.54S260.85 919.24 310.69 919.24S363.61 916.46 413.36 916.46S467.04 885.11 516.03 885.11S569.69 862.27 618.7 862.27S671.62 890.11 721.37 890.11S773.81 911.55 824.05 911.55S878.24 871.32 926.72 871.32S979.73 924.46 1029.39 924.46S1083.05 879.07 1132.06 879.07S1185.82 903.63 1234.73 903.63S1286.71 903.06 1337.4 903.06S1390.74 923 1440.08 923S1492.18 878.02 1542.75 878.02S1594.84 902.57 1645.42 902.57S1697.93 913.11 1748.09 913.11S1801.24 924.33 1850.76 924.33S1902.16 879.65 1953.44 879.65S2006.9 922.25 2056.11 922.25S2108.76 877.3 2158.78 877.3S2212.74 906.38 2261.45 906.38S2313.35 890.41 2364.12 890.41S2416.18 890.41 2466.79 890.41S2520.94 880.68 2569.47 880.68S2622.86 922.14 2672.14 922.14L2590 1180 L-100 1180 Z" fill="#5790ad" stroke-width="0">
  <animate attributeName="d" dur="5.063291139240506s" repeatCount="indefinite" values="M-100 890.8C-47.97 887.44 -45.76 910.27 2.67 910.27S56.34 861.44 105.34 861.44S159.26 915.54 208.02 915.54S260.85 919.24 310.69 919.24S363.61 916.46 413.36 916.46S467.04 885.11 516.03 885.11S569.69 862.27 618.7 862.27S671.62 890.11 721.37 890.11S773.81 911.55 824.05 911.55S878.24 871.32 926.72 871.32S979.73 924.46 1029.39 924.46S1083.05 879.07 1132.06 879.07S1185.82 903.63 1234.73 903.63S1286.71 903.06 1337.4 903.06S1390.74 923 1440.08 923S1492.18 878.02 1542.75 878.02S1594.84 902.57 1645.42 902.57S1697.93 913.11 1748.09 913.11S1801.24 924.33 1850.76 924.33S1902.16 879.65 1953.44 879.65S2006.9 922.25 2056.11 922.25S2108.76 877.3 2158.78 877.3S2212.74 906.38 2261.45 906.38S2313.35 890.41 2364.12 890.41S2416.18 890.41 2466.79 890.41S2520.94 880.68 2569.47 880.68S2622.86 922.14 2672.14 922.14L2590 1180 L-100 1180 Z;M-100 877.54C-46.55 890.42 -48.42 922.58 2.67 922.58S56.16 883.17 105.34 883.17S157.23 915.63 208.02 915.63S259.83 866.04 310.69 866.04S362.32 924.99 413.36 924.99S465.41 882.2 516.03 882.2S569.52 880 618.7 880S671.25 890.39 721.37 890.39S775.12 912.91 824.05 912.91S876.31 869.66 926.72 869.66S980.62 909.64 1029.39 909.64S1081.27 881.81 1132.06 881.81S1184.52 907.09 1234.73 907.09S1287.78 862.64 1337.4 862.64S1391.04 898.16 1440.08 898.16S1492.88 885.15 1542.75 885.15S1596.14 882.16 1645.42 882.16S1698.25 867.86 1748.09 867.86S1799.57 861.9 1850.76 861.9S1902.8 912.18 1953.44 912.18S2006.1 921.28 2056.11 921.28S2107.97 871.81 2158.78 871.81S2212.53 904.77 2261.45 904.77S2314.31 883.63 2364.12 883.63S2417.91 920.41 2466.79 920.41S2520.25 924.91 2569.47 924.91S2620.83 907.21 2672.14 907.21L2590 1180 L-100 1180 Z;M-100 890.8C-47.97 887.44 -45.76 910.27 2.67 910.27S56.34 861.44 105.34 861.44S159.26 915.54 208.02 915.54S260.85 919.24 310.69 919.24S363.61 916.46 413.36 916.46S467.04 885.11 516.03 885.11S569.69 862.27 618.7 862.27S671.62 890.11 721.37 890.11S773.81 911.55 824.05 911.55S878.24 871.32 926.72 871.32S979.73 924.46 1029.39 924.46S1083.05 879.07 1132.06 879.07S1185.82 903.63 1234.73 903.63S1286.71 903.06 1337.4 903.06S1390.74 923 1440.08 923S1492.18 878.02 1542.75 878.02S1594.84 902.57 1645.42 902.57S1697.93 913.11 1748.09 913.11S1801.24 924.33 1850.76 924.33S1902.16 879.65 1953.44 879.65S2006.9 922.25 2056.11 922.25S2108.76 877.3 2158.78 877.3S2212.74 906.38 2261.45 906.38S2313.35 890.41 2364.12 890.41S2416.18 890.41 2466.79 890.41S2520.94 880.68 2569.47 880.68S2622.86 922.14 2672.14 922.14L2590 1180 L-100 1180 Z"></animate>
  <animateTransform attributeName="transform" type="translate" dur="5.063291139240506s" begin="-3.0379746835443036s" repeatCount="indefinite" values="0;10;0" calcMode="spline" keySplines="0.3 0 0.7 1;0.3 0 0.7 1"></animateTransform>
</path><path d="M-100 918.11C-46.34 901.68 -45.03 958.65 5.91 958.65S60.27 918.49 111.81 918.49S165.25 940.74 217.72 940.74S272.62 898.53 323.62 898.53S378.51 942.81 429.53 942.81S483.79 914.59 535.43 914.59S589.62 905.18 641.34 905.18S695.69 891.48 747.24 891.48S801.35 938.15 853.15 938.15S908.12 899.16 959.06 899.16S1012.38 952.91 1064.96 952.91S1119.06 895.95 1170.87 895.95S1225.25 957.57 1276.77 957.57S1330.21 897.92 1382.68 897.92S1437.02 938.66 1488.58 938.66S1544.39 916.66 1594.49 916.66S1650.05 936.94 1700.39 936.94S1755.63 947.72 1806.3 947.72S1861.09 958.66 1912.2 958.66S1966.34 907.32 2018.11 907.32S2071.63 950.48 2124.02 950.48S2178.26 944.14 2229.92 944.14S2283.91 944.92 2335.83 944.92S2390.65 938.79 2441.73 938.79S2497.63 950.3 2547.64 950.3S2602.6 895.35 2653.54 895.35L2590 1180 L-100 1180 Z" fill="#4f86a4" stroke-width="0">
  <animate attributeName="d" dur="3.7974683544303796s" repeatCount="indefinite" values="M-100 918.11C-46.34 901.68 -45.03 958.65 5.91 958.65S60.27 918.49 111.81 918.49S165.25 940.74 217.72 940.74S272.62 898.53 323.62 898.53S378.51 942.81 429.53 942.81S483.79 914.59 535.43 914.59S589.62 905.18 641.34 905.18S695.69 891.48 747.24 891.48S801.35 938.15 853.15 938.15S908.12 899.16 959.06 899.16S1012.38 952.91 1064.96 952.91S1119.06 895.95 1170.87 895.95S1225.25 957.57 1276.77 957.57S1330.21 897.92 1382.68 897.92S1437.02 938.66 1488.58 938.66S1544.39 916.66 1594.49 916.66S1650.05 936.94 1700.39 936.94S1755.63 947.72 1806.3 947.72S1861.09 958.66 1912.2 958.66S1966.34 907.32 2018.11 907.32S2071.63 950.48 2124.02 950.48S2178.26 944.14 2229.92 944.14S2283.91 944.92 2335.83 944.92S2390.65 938.79 2441.73 938.79S2497.63 950.3 2547.64 950.3S2602.6 895.35 2653.54 895.35L2590 1180 L-100 1180 Z;M-100 905.97C-44.5 904.59 -45.39 899.47 5.91 899.47S60.72 912.03 111.81 912.03S166.9 946.33 217.72 946.33S272.87 941.59 323.62 941.59S377.56 932.33 429.53 932.33S483.48 955.15 535.43 955.15S589.87 934.01 641.34 934.01S696.69 959.69 747.24 959.69S800.91 957.83 853.15 957.83S908.11 911.29 959.06 911.29S1014.64 944.64 1064.96 944.64S1118.68 909.03 1170.87 909.03S1224.02 954.94 1276.77 954.94S1329.92 905.08 1382.68 905.08S1438.03 960.54 1488.58 960.54S1543.31 895.51 1594.49 895.51S1648.22 960.37 1700.39 960.37S1753.85 906.08 1806.3 906.08S1860.18 952.98 1912.2 952.98S1967.15 896.62 2018.11 896.62S2071.23 937.61 2124.02 937.61S2178.05 905 2229.92 905S2284.09 944.25 2335.83 944.25S2391.04 913.29 2441.73 913.29S2495.64 952.12 2547.64 952.12S2602.99 948.98 2653.54 948.98L2590 1180 L-100 1180 Z;M-100 918.11C-46.34 901.68 -45.03 958.65 5.91 958.65S60.27 918.49 111.81 918.49S165.25 940.74 217.72 940.74S272.62 898.53 323.62 898.53S378.51 942.81 429.53 942.81S483.79 914.59 535.43 914.59S589.62 905.18 641.34 905.18S695.69 891.48 747.24 891.48S801.35 938.15 853.15 938.15S908.12 899.16 959.06 899.16S1012.38 952.91 1064.96 952.91S1119.06 895.95 1170.87 895.95S1225.25 957.57 1276.77 957.57S1330.21 897.92 1382.68 897.92S1437.02 938.66 1488.58 938.66S1544.39 916.66 1594.49 916.66S1650.05 936.94 1700.39 936.94S1755.63 947.72 1806.3 947.72S1861.09 958.66 1912.2 958.66S1966.34 907.32 2018.11 907.32S2071.63 950.48 2124.02 950.48S2178.26 944.14 2229.92 944.14S2283.91 944.92 2335.83 944.92S2390.65 938.79 2441.73 938.79S2497.63 950.3 2547.64 950.3S2602.6 895.35 2653.54 895.35L2590 1180 L-100 1180 Z"></animate>
  <animateTransform attributeName="transform" type="translate" dur="3.7974683544303796s" begin="-2.6582278481012658s" repeatCount="indefinite" values="0;10;0" calcMode="spline" keySplines="0.3 0 0.7 1;0.3 0 0.7 1"></animateTransform>
</path><path d="M-100 943.78C-44.48 929.8 -43.23 987.97 9.35 987.97S65.27 947.79 118.7 947.79S176.24 968.43 228.05 968.43S285.5 988.45 337.4 988.45S392.31 941.64 446.75 941.64S502.6 945.78 556.1 945.78S611 983.99 665.45 983.99S721.64 923.6 774.8 923.6S830.87 990.65 884.15 990.65S940.29 927.87 993.5 927.87S1051.09 970.59 1102.85 970.59S1157.53 947.97 1212.2 947.97S1267.85 992.62 1321.54 992.62S1376.67 980.97 1430.89 980.97S1487.59 984.22 1540.24 984.22S1595.53 995.33 1649.59 995.33S1707 990.04 1758.94 990.04S1814.72 925.41 1868.29 925.41S1924.26 947.75 1977.64 947.75S2034.39 929.32 2086.99 929.32S2142.07 969.62 2196.34 969.62S2253.31 934 2305.69 934S2361.59 980.96 2415.04 980.96S2470.16 949.23 2524.39 949.23S2580.47 994.71 2633.74 994.71L2590 1180 L-100 1180 Z" fill="#477c9a" stroke-width="0">
  <animate attributeName="d" dur="2.531645569620253s" repeatCount="indefinite" values="M-100 943.78C-44.48 929.8 -43.23 987.97 9.35 987.97S65.27 947.79 118.7 947.79S176.24 968.43 228.05 968.43S285.5 988.45 337.4 988.45S392.31 941.64 446.75 941.64S502.6 945.78 556.1 945.78S611 983.99 665.45 983.99S721.64 923.6 774.8 923.6S830.87 990.65 884.15 990.65S940.29 927.87 993.5 927.87S1051.09 970.59 1102.85 970.59S1157.53 947.97 1212.2 947.97S1267.85 992.62 1321.54 992.62S1376.67 980.97 1430.89 980.97S1487.59 984.22 1540.24 984.22S1595.53 995.33 1649.59 995.33S1707 990.04 1758.94 990.04S1814.72 925.41 1868.29 925.41S1924.26 947.75 1977.64 947.75S2034.39 929.32 2086.99 929.32S2142.07 969.62 2196.34 969.62S2253.31 934 2305.69 934S2361.59 980.96 2415.04 980.96S2470.16 949.23 2524.39 949.23S2580.47 994.71 2633.74 994.71L2590 1180 L-100 1180 Z;M-100 984.89C-45.25 972.43 -42.81 993.74 9.35 993.74S66.29 939.09 118.7 939.09S173.49 994.41 228.05 994.41S283.76 933.46 337.4 933.46S393.96 970.07 446.75 970.07S503.52 921.76 556.1 921.76S610.98 986.68 665.45 986.68S720.18 947.5 774.8 947.5S830.93 990.65 884.15 990.65S940.99 934.81 993.5 934.81S1049.9 990.57 1102.85 990.57S1158.52 941.66 1212.2 941.66S1267.09 971.89 1321.54 971.89S1376.9 942.13 1430.89 942.13S1485.59 984.17 1540.24 984.17S1597.26 944.24 1649.59 944.24S1704.37 995.35 1758.94 995.35S1814.2 936.17 1868.29 936.17S1924.6 968.98 1977.64 968.98S2033.08 935.76 2086.99 935.76S2142.87 982.8 2196.34 982.8S2252.17 933.21 2305.69 933.21S2362.46 986.28 2415.04 986.28S2472.28 948.09 2524.39 948.09S2579.08 995.58 2633.74 995.58L2590 1180 L-100 1180 Z;M-100 943.78C-44.48 929.8 -43.23 987.97 9.35 987.97S65.27 947.79 118.7 947.79S176.24 968.43 228.05 968.43S285.5 988.45 337.4 988.45S392.31 941.64 446.75 941.64S502.6 945.78 556.1 945.78S611 983.99 665.45 983.99S721.64 923.6 774.8 923.6S830.87 990.65 884.15 990.65S940.29 927.87 993.5 927.87S1051.09 970.59 1102.85 970.59S1157.53 947.97 1212.2 947.97S1267.85 992.62 1321.54 992.62S1376.67 980.97 1430.89 980.97S1487.59 984.22 1540.24 984.22S1595.53 995.33 1649.59 995.33S1707 990.04 1758.94 990.04S1814.72 925.41 1868.29 925.41S1924.26 947.75 1977.64 947.75S2034.39 929.32 2086.99 929.32S2142.07 969.62 2196.34 969.62S2253.31 934 2305.69 934S2361.59 980.96 2415.04 980.96S2470.16 949.23 2524.39 949.23S2580.47 994.71 2633.74 994.71L2590 1180 L-100 1180 Z"></animate>
  <animateTransform attributeName="transform" type="translate" dur="2.531645569620253s" begin="-2.0253164556962022s" repeatCount="indefinite" values="0;10;0" calcMode="spline" keySplines="0.3 0 0.7 1;0.3 0 0.7 1"></animateTransform>
</path><path d="M-100 974.55C-41.86 979.29 -42.77 1011.26 13.03 1011.26S70.88 976.17 126.05 976.17S184.64 1009.09 239.08 1009.09S295.81 958.69 352.1 958.69S408.95 1018.15 465.13 1018.15S522.55 971.38 578.15 971.38S637.23 1010.89 691.18 1010.89S747.86 970.58 804.2 970.58S863.19 1007.1 917.23 1007.1S975.29 975.67 1030.25 975.67S1087.44 1021.02 1143.28 1021.02S1200.29 954.21 1256.3 954.21S1313.8 1018.75 1369.33 1018.75S1427.64 977.56 1482.35 977.56S1540.8 1015.21 1595.38 1015.21S1654.65 973.43 1708.4 973.43S1767.32 1010.76 1821.43 1010.76S1879.45 977.76 1934.45 977.76S1991.51 970.2 2047.48 970.2S2105.42 977.5 2160.5 977.5S2217.53 1030.48 2273.53 1030.48S2331.49 974.57 2386.55 974.57S2445.42 962.04 2499.58 962.04S2556.82 1019.03 2612.61 1019.03L2590 1180 L-100 1180 Z" fill="#3f7291" stroke-width="0">
  <animate attributeName="d" dur="1.2658227848101264s" repeatCount="indefinite" values="M-100 974.55C-41.86 979.29 -42.77 1011.26 13.03 1011.26S70.88 976.17 126.05 976.17S184.64 1009.09 239.08 1009.09S295.81 958.69 352.1 958.69S408.95 1018.15 465.13 1018.15S522.55 971.38 578.15 971.38S637.23 1010.89 691.18 1010.89S747.86 970.58 804.2 970.58S863.19 1007.1 917.23 1007.1S975.29 975.67 1030.25 975.67S1087.44 1021.02 1143.28 1021.02S1200.29 954.21 1256.3 954.21S1313.8 1018.75 1369.33 1018.75S1427.64 977.56 1482.35 977.56S1540.8 1015.21 1595.38 1015.21S1654.65 973.43 1708.4 973.43S1767.32 1010.76 1821.43 1010.76S1879.45 977.76 1934.45 977.76S1991.51 970.2 2047.48 970.2S2105.42 977.5 2160.5 977.5S2217.53 1030.48 2273.53 1030.48S2331.49 974.57 2386.55 974.57S2445.42 962.04 2499.58 962.04S2556.82 1019.03 2612.61 1019.03L2590 1180 L-100 1180 Z;M-100 968.15C-40.56 976.12 -42.67 1010.15 13.03 1010.15S71.2 950.78 126.05 950.78S184.56 1021.82 239.08 1021.82S298.41 971.59 352.1 971.59S409.03 957.1 465.13 957.1S524.11 966.72 578.15 966.72S636.87 1012.18 691.18 1012.18S749.3 959.41 804.2 959.41S862.47 1016.86 917.23 1016.86S973.78 1029.91 1030.25 1029.91S1088.74 1007.21 1143.28 1007.21S1201.48 973.77 1256.3 973.77S1314.49 1007.27 1369.33 1007.27S1427.86 957.9 1482.35 957.9S1539.99 1015.19 1595.38 1015.19S1651.97 950.98 1708.4 950.98S1765.45 1022.28 1821.43 1022.28S1878.04 975.17 1934.45 975.17S1992.26 1006.21 2047.48 1006.21S2104.68 958.99 2160.5 958.99S2218.01 1007.59 2273.53 1007.59S2330.52 955.52 2386.55 955.52S2443.49 1004.66 2499.58 1004.66S2557.36 961.39 2612.61 961.39L2590 1180 L-100 1180 Z;M-100 974.55C-41.86 979.29 -42.77 1011.26 13.03 1011.26S70.88 976.17 126.05 976.17S184.64 1009.09 239.08 1009.09S295.81 958.69 352.1 958.69S408.95 1018.15 465.13 1018.15S522.55 971.38 578.15 971.38S637.23 1010.89 691.18 1010.89S747.86 970.58 804.2 970.58S863.19 1007.1 917.23 1007.1S975.29 975.67 1030.25 975.67S1087.44 1021.02 1143.28 1021.02S1200.29 954.21 1256.3 954.21S1313.8 1018.75 1369.33 1018.75S1427.64 977.56 1482.35 977.56S1540.8 1015.21 1595.38 1015.21S1654.65 973.43 1708.4 973.43S1767.32 1010.76 1821.43 1010.76S1879.45 977.76 1934.45 977.76S1991.51 970.2 2047.48 970.2S2105.42 977.5 2160.5 977.5S2217.53 1030.48 2273.53 1030.48S2331.49 974.57 2386.55 974.57S2445.42 962.04 2499.58 962.04S2556.82 1019.03 2612.61 1019.03L2590 1180 L-100 1180 Z"></animate>
  <animateTransform attributeName="transform" type="translate" dur="1.2658227848101264s" begin="-1.1392405063291138s" repeatCount="indefinite" values="0;10;0" calcMode="spline" keySplines="0.3 0 0.7 1;0.3 0 0.7 1"></animateTransform>
</path></g>
</svg>